<svg viewBox="0 0 96 96" fill="none" xmlns="http://www.w3.org/2000/svg">
  <path d="M 91.992188 68.085938 L 91.992188 68.082031 C 97.289062 58.863281 94.144531 47.078125 84.972656 41.757812 C 75.800781 36.433594 64.070312 39.59375 58.773438 48.808594 L 49.183594 65.5 C 43.886719 74.71875 32.15625 77.875 22.984375 72.554688 C 13.808594 67.230469 10.664062 55.445312 15.960938 46.226562 L 20.753906 37.886719 C 23.402344 33.277344 21.832031 27.386719 17.242188 24.722656 C 12.65625 22.0625 6.789062 23.640625 4.140625 28.25 L 4.136719 28.253906 C -1.160156 37.472656 1.984375 49.261719 11.160156 54.582031 C 20.332031 59.90625 32.0625 56.746094 37.359375 47.527344 L 46.949219 30.839844 C 52.246094 21.617188 63.976562 18.460938 73.152344 23.78125 C 82.324219 29.105469 85.46875 40.890625 80.171875 50.109375 L 75.378906 58.449219 C 72.730469 63.058594 74.300781 68.953125 78.890625 71.613281 C 83.476562 74.277344 89.34375 72.695312 91.992188 68.085938 Z" fill="#E70074"/>
</svg>
